<svg version="1.2" xmlns="http://www.w3.org/2000/svg" viewBox="0 0 114 114" width="114" height="114"><style>.a{fill:#dd3714}.b{fill:#fff}</style><path class="a" d="m0 57c0-31.5 25.5-57 57-57 31.5 0 57 25.5 57 57 0 31.5-25.5 57-57 57-31.5 0-57-25.5-57-57z"/><path class="b" d="m46.4 66.6l0.9-0.5c-2.4-4.6-3.6-9.7-3.6-14.9-0.1-3.9 1-7.6 3.2-10.8 2.1-3 3.8-4.9 8.2-5.7 4.5-0.9 8.7 0.7 9.5 2.2 0.8 1.5-3.1 1.6-5.5 5.1-1.8 2.2-3.1 4.7-4 7.3-0.9 2.5-1.4 5.2-1.6 7.8-0.2 3.8 0.3 6 1.2 9.9 0.9 3.8 1.7 5.5 2.9 7.2q-2.1 1.4-4.5 2.2-2.5 0.6-5.2 0.6c-1.9 0-3.9-0.4-5.6-1.3-1.8-0.9-3.3-2.2-4.5-3.7-1.2-1.7-2.1-3.6-2.8-5.6-1.5-4.9-2.3-9.9-2.4-14.9h-0.9q-2.5 11.4-2.5 15.9c-0.2 2.5 0.4 5 1.6 7.2-1.9 1.5-4.3 2.4-6.8 2.4q-3.6 0-5.1-2-1.5-2.1-1.5-6.2c0-2.7 3.2-21.1 3.4-23.1 0.3-1.9-2.9-5.8-2.9-5.8q6.1-3.9 11-3.9 4.8 0 7.2 1.6c1.7 1.2 2.9 2.9 3.5 4.9q1 3.4 1.4 6.8 0.5 3.6 1.7 8.6c0.7 3.4 2.3 6 3.7 8.7z"/><path class="b" d="m84.4 64.2l-3-5.6q5.7-4.1 10.4-4.3 3.9-0.1 4.1 4.3-0.3 3.9-1.2 7.8-1.1 4.8-1.2 9.8c-0.1 1.8 0.5 3.6 1.7 5-1.8 1.5-4 2.3-6.3 2.5q-3.4 0.1-4.9-2.1c-1.1-1.9-1.6-4.1-1.6-6.3-1.9 0.6-4 1-6.1 1.1q-7.4 0.2-12.1-4.2-4.7-4.4-5.1-13.4c0-2.7 0.4-5.3 1.4-7.8 1-2.7 2.5-5.3 4.4-7.5 2.1-2.5 4.7-4.5 7.6-5.8 3.1-1.6 6.5-2.4 10-2.6q5.1-0.1 8.1 1.7c1 0.5 1.7 1.2 2.3 2.1 0.5 1 0.8 2 0.8 3.1 0.1 1 0 1.9-0.4 2.9-0.3 0.9-0.9 1.7-1.6 2.4-1.4 1.3-3.1 2-5 2.1-1.8 0.1-3.5-0.3-5.1-1.1-1.6-0.7-2.9-1.9-3.8-3.4-2.2 1.4-3.9 3.4-4.9 5.8-1.3 2.7-1.9 5.7-1.8 8.7q0.2 4.6 2 6.8c0.5 0.7 1.2 1.2 2 1.6 0.8 0.4 1.7 0.5 2.5 0.5q3.9-0.1 6.8-4.1z"/></svg>