<?xml version="1.0" encoding="utf-8"?>
<!-- Generator: Adobe Illustrator 17.0.0, SVG Export Plug-In . SVG Version: 6.00 Build 0)  -->
<!DOCTYPE svg PUBLIC "-//W3C//DTD SVG 1.1//EN" "http://www.w3.org/Graphics/SVG/1.1/DTD/svg11.dtd">
<svg version="1.1" id="Layer_1" xmlns="http://www.w3.org/2000/svg" xmlns:xlink="http://www.w3.org/1999/xlink" x="0px" y="0px"
	 width="200px" height="200px" viewBox="0 0 200 200" enable-background="new 0 0 200 200" xml:space="preserve">
<circle fill="#E65225" cx="100" cy="100" r="100"/>
<g>
	<g>
		<path fill="#FFFFFF" d="M99.465,112.059L81.791,84.711c-1.779-0.03-4.268-0.135-7.458-0.315v27.664H62.127V45.833
			c0.66,0,3.207-0.112,7.639-0.338c4.428-0.227,8-0.338,10.712-0.338c16.817,0,25.225,6.51,25.225,19.529
			c0,3.916-1.159,7.488-3.48,10.712c-2.321,3.227-5.246,5.502-8.771,6.828l19.575,29.834H99.465z M74.332,56.052v18.396
			c2.17,0.181,3.824,0.272,4.97,0.272c4.914,0,8.506-0.693,10.781-2.081c2.278-1.385,3.414-4.084,3.414-8.092
			c0-3.253-1.221-5.528-3.66-6.825c-2.442-1.297-6.283-1.943-11.529-1.943C77.044,55.78,75.718,55.869,74.332,56.052z"/>
	</g>
	<g>
		<path fill="#FFFFFF" d="M133.083,154.843l-32.141-41.904v41.047H89.643V87.714h5.65l31.281,39.961V87.714h11.299v67.129H133.083z"
			/>
	</g>
</g>
</svg>
