<svg version="1.2" xmlns="http://www.w3.org/2000/svg" viewBox="0 0 56 40" width="56" height="40"><style>.a{fill:#15a900}</style><path fill-rule="evenodd" class="a" d="m55.4 16.4c0 7.2-5.6 12.8-12.4 12.8-3.4 0-6.2-0.9-8.6-2.5l-2.7 13.3h-6.4l3.9-18.2c-1.6-2.4-3.2-5-4.4-7.5v2.8c0 6.8-5.5 12.3-12.3 12.3-6.7 0-12.2-5.5-12.2-12.3v-16.5h6.1v16.4c0 3.2 2.7 5.9 5.9 5.9 3.3 0 6-2.7 6-5.9v-16.5h6.2c1.3 4.3 3.5 9.2 6.3 13.6 1.8-6.2 6.3-10.1 12.2-10.1 6.8 0 12.4 5.6 12.4 12.4zm-6 0.2c0-3.4-2.8-6.2-6.3-6.2-4.6 0-6 4.4-6.5 7.1v0.1l-0.6 2.5c2 1.7 4.5 2.8 7 2.8 3.3 0 6.3-2.8 6.4-6.3z"/></svg>